<mxfile host="Electron" agent="Mozilla/5.0 (Windows NT 10.0; Win64; x64) AppleWebKit/537.36 (KHTML, like Gecko) draw.io/28.1.2 Chrome/138.0.7204.243 Electron/37.4.0 Safari/537.36" version="28.1.2">
  <diagram name="Page-1" id="B8yZaoBHP8ZqiNT9Cpi7">
    <mxGraphModel dx="1629" dy="962" grid="1" gridSize="10" guides="1" tooltips="1" connect="1" arrows="1" fold="1" page="1" pageScale="1" pageWidth="850" pageHeight="1100" math="0" shadow="0">
      <root>
        <mxCell id="0" />
        <mxCell id="1" parent="0" />
        <mxCell id="JjN0nvbfUZPxdywx9kI7-1" value="Actor" style="shape=umlActor;verticalLabelPosition=bottom;verticalAlign=top;html=1;outlineConnect=0;" vertex="1" parent="1">
          <mxGeometry x="30" y="290" width="30" height="60" as="geometry" />
        </mxCell>
        <mxCell id="JjN0nvbfUZPxdywx9kI7-2" value="" style="rounded=0;whiteSpace=wrap;html=1;fontSize=12;movable=1;resizable=1;rotatable=1;deletable=1;editable=1;locked=0;connectable=1;" vertex="1" parent="1">
          <mxGeometry x="220.5" y="30" width="410" height="540" as="geometry" />
        </mxCell>
        <mxCell id="JjN0nvbfUZPxdywx9kI7-3" value="Admin" style="shape=umlActor;verticalLabelPosition=bottom;verticalAlign=top;html=1;outlineConnect=0;" vertex="1" parent="1">
          <mxGeometry x="710" y="180" width="30" height="60" as="geometry" />
        </mxCell>
        <mxCell id="JjN0nvbfUZPxdywx9kI7-4" value="Collector" style="shape=umlActor;verticalLabelPosition=bottom;verticalAlign=top;html=1;outlineConnect=0;" vertex="1" parent="1">
          <mxGeometry x="710" y="360" width="30" height="60" as="geometry" />
        </mxCell>
        <mxCell id="JjN0nvbfUZPxdywx9kI7-8" value="login" style="ellipse;whiteSpace=wrap;html=1;fontSize=12;" vertex="1" parent="1">
          <mxGeometry x="250" y="240" width="60" height="40" as="geometry" />
        </mxCell>
        <mxCell id="JjN0nvbfUZPxdywx9kI7-9" value="register" style="ellipse;whiteSpace=wrap;html=1;fontSize=12;" vertex="1" parent="1">
          <mxGeometry x="260" y="90" width="60" height="40" as="geometry" />
        </mxCell>
        <mxCell id="JjN0nvbfUZPxdywx9kI7-10" value="request&lt;div&gt;pickup&lt;/div&gt;" style="ellipse;whiteSpace=wrap;html=1;fontSize=12;" vertex="1" parent="1">
          <mxGeometry x="260" y="310" width="60" height="40" as="geometry" />
        </mxCell>
        <mxCell id="JjN0nvbfUZPxdywx9kI7-11" value="report" style="ellipse;whiteSpace=wrap;html=1;fontSize=12;" vertex="1" parent="1">
          <mxGeometry x="260" y="370" width="60" height="40" as="geometry" />
        </mxCell>
        <mxCell id="JjN0nvbfUZPxdywx9kI7-12" value="view notifications" style="ellipse;whiteSpace=wrap;html=1;fontSize=12;" vertex="1" parent="1">
          <mxGeometry x="260" y="420" width="60" height="40" as="geometry" />
        </mxCell>
        <mxCell id="JjN0nvbfUZPxdywx9kI7-15" value="authenticate" style="ellipse;whiteSpace=wrap;html=1;fontSize=12;" vertex="1" parent="1">
          <mxGeometry x="340" y="160" width="75" height="50" as="geometry" />
        </mxCell>
        <mxCell id="JjN0nvbfUZPxdywx9kI7-17" value="&amp;lt;&amp;lt;include&amp;gt;&amp;gt;" style="endArrow=open;html=1;rounded=0;align=center;verticalAlign=bottom;dashed=1;endFill=0;labelBackgroundColor=none;exitX=1;exitY=0.5;exitDx=0;exitDy=0;fontSize=12;" edge="1" parent="1" source="JjN0nvbfUZPxdywx9kI7-8" target="JjN0nvbfUZPxdywx9kI7-15">
          <mxGeometry relative="1" as="geometry">
            <mxPoint x="390" y="300" as="sourcePoint" />
            <mxPoint x="550" y="300" as="targetPoint" />
          </mxGeometry>
        </mxCell>
        <mxCell id="JjN0nvbfUZPxdywx9kI7-18" value="" style="resizable=0;html=1;align=center;verticalAlign=top;labelBackgroundColor=none;fontSize=12;" connectable="0" vertex="1" parent="JjN0nvbfUZPxdywx9kI7-17">
          <mxGeometry relative="1" as="geometry" />
        </mxCell>
        <mxCell id="JjN0nvbfUZPxdywx9kI7-20" value="view assigned route" style="ellipse;whiteSpace=wrap;html=1;fontSize=12;" vertex="1" parent="1">
          <mxGeometry x="520" y="370" width="60" height="40" as="geometry" />
        </mxCell>
        <mxCell id="JjN0nvbfUZPxdywx9kI7-21" value="update pickup status" style="ellipse;whiteSpace=wrap;html=1;fontSize=12;" vertex="1" parent="1">
          <mxGeometry x="520" y="420" width="60" height="40" as="geometry" />
        </mxCell>
        <mxCell id="JjN0nvbfUZPxdywx9kI7-22" value="report bin issues" style="ellipse;whiteSpace=wrap;html=1;fontSize=12;" vertex="1" parent="1">
          <mxGeometry x="520" y="470" width="60" height="40" as="geometry" />
        </mxCell>
        <mxCell id="JjN0nvbfUZPxdywx9kI7-24" value="" style="endArrow=classic;html=1;rounded=0;fontSize=12;" edge="1" parent="1" source="JjN0nvbfUZPxdywx9kI7-1" target="JjN0nvbfUZPxdywx9kI7-8">
          <mxGeometry width="50" height="50" relative="1" as="geometry">
            <mxPoint x="250" y="360" as="sourcePoint" />
            <mxPoint x="300" y="310" as="targetPoint" />
          </mxGeometry>
        </mxCell>
        <mxCell id="JjN0nvbfUZPxdywx9kI7-25" value="" style="endArrow=classic;html=1;rounded=0;fontSize=12;" edge="1" parent="1" source="JjN0nvbfUZPxdywx9kI7-1" target="JjN0nvbfUZPxdywx9kI7-9">
          <mxGeometry width="50" height="50" relative="1" as="geometry">
            <mxPoint x="260" y="289" as="sourcePoint" />
            <mxPoint x="370" y="205" as="targetPoint" />
          </mxGeometry>
        </mxCell>
        <mxCell id="JjN0nvbfUZPxdywx9kI7-26" value="" style="endArrow=classic;html=1;rounded=0;fontSize=12;" edge="1" parent="1" source="JjN0nvbfUZPxdywx9kI7-1" target="JjN0nvbfUZPxdywx9kI7-10">
          <mxGeometry width="50" height="50" relative="1" as="geometry">
            <mxPoint x="190" y="532" as="sourcePoint" />
            <mxPoint x="300" y="448" as="targetPoint" />
          </mxGeometry>
        </mxCell>
        <mxCell id="JjN0nvbfUZPxdywx9kI7-27" value="" style="endArrow=classic;html=1;rounded=0;entryX=0.1;entryY=0.675;entryDx=0;entryDy=0;entryPerimeter=0;fontSize=12;" edge="1" parent="1" source="JjN0nvbfUZPxdywx9kI7-1" target="JjN0nvbfUZPxdywx9kI7-11">
          <mxGeometry width="50" height="50" relative="1" as="geometry">
            <mxPoint x="260" y="310" as="sourcePoint" />
            <mxPoint x="300" y="470" as="targetPoint" />
          </mxGeometry>
        </mxCell>
        <mxCell id="JjN0nvbfUZPxdywx9kI7-29" value="" style="endArrow=classic;html=1;rounded=0;fontSize=12;" edge="1" parent="1" source="JjN0nvbfUZPxdywx9kI7-1" target="JjN0nvbfUZPxdywx9kI7-12">
          <mxGeometry width="50" height="50" relative="1" as="geometry">
            <mxPoint x="270" y="320" as="sourcePoint" />
            <mxPoint x="366" y="377" as="targetPoint" />
          </mxGeometry>
        </mxCell>
        <mxCell id="JjN0nvbfUZPxdywx9kI7-30" value="" style="endArrow=classic;html=1;rounded=0;fontSize=12;" edge="1" parent="1" source="JjN0nvbfUZPxdywx9kI7-4" target="JjN0nvbfUZPxdywx9kI7-20">
          <mxGeometry width="50" height="50" relative="1" as="geometry">
            <mxPoint x="660" y="480" as="sourcePoint" />
            <mxPoint x="756" y="537" as="targetPoint" />
          </mxGeometry>
        </mxCell>
        <mxCell id="JjN0nvbfUZPxdywx9kI7-31" value="" style="endArrow=classic;html=1;rounded=0;entryX=1;entryY=0.5;entryDx=0;entryDy=0;fontSize=12;" edge="1" parent="1" source="JjN0nvbfUZPxdywx9kI7-4" target="JjN0nvbfUZPxdywx9kI7-21">
          <mxGeometry width="50" height="50" relative="1" as="geometry">
            <mxPoint x="730" y="560" as="sourcePoint" />
            <mxPoint x="816" y="617" as="targetPoint" />
          </mxGeometry>
        </mxCell>
        <mxCell id="JjN0nvbfUZPxdywx9kI7-32" value="" style="endArrow=classic;html=1;rounded=0;fontSize=12;" edge="1" parent="1" source="JjN0nvbfUZPxdywx9kI7-4" target="JjN0nvbfUZPxdywx9kI7-22">
          <mxGeometry width="50" height="50" relative="1" as="geometry">
            <mxPoint x="640.0048101265824" y="430" as="sourcePoint" />
            <mxPoint x="728.22" y="637" as="targetPoint" />
          </mxGeometry>
        </mxCell>
        <mxCell id="JjN0nvbfUZPxdywx9kI7-33" value="" style="endArrow=classic;html=1;rounded=0;entryX=1;entryY=1;entryDx=0;entryDy=0;exitX=0.5;exitY=0.5;exitDx=0;exitDy=0;exitPerimeter=0;fontSize=12;" edge="1" parent="1" source="JjN0nvbfUZPxdywx9kI7-4" target="JjN0nvbfUZPxdywx9kI7-8">
          <mxGeometry width="50" height="50" relative="1" as="geometry">
            <mxPoint x="630" y="180" as="sourcePoint" />
            <mxPoint x="756" y="407" as="targetPoint" />
          </mxGeometry>
        </mxCell>
        <mxCell id="JjN0nvbfUZPxdywx9kI7-34" value="" style="endArrow=classic;html=1;rounded=0;fontSize=12;" edge="1" parent="1" source="JjN0nvbfUZPxdywx9kI7-45" target="JjN0nvbfUZPxdywx9kI7-8">
          <mxGeometry width="50" height="50" relative="1" as="geometry">
            <mxPoint x="690" y="303" as="sourcePoint" />
            <mxPoint x="786" y="360" as="targetPoint" />
          </mxGeometry>
        </mxCell>
        <mxCell id="JjN0nvbfUZPxdywx9kI7-40" value="Fetch route data" style="ellipse;whiteSpace=wrap;html=1;fontSize=12;" vertex="1" parent="1">
          <mxGeometry x="380" y="340" width="75" height="50" as="geometry" />
        </mxCell>
        <mxCell id="JjN0nvbfUZPxdywx9kI7-41" value="&amp;lt;&amp;lt;include&amp;gt;&amp;gt;" style="html=1;verticalAlign=bottom;labelBackgroundColor=none;endArrow=open;endFill=0;dashed=1;rounded=0;fontSize=12;" edge="1" parent="1" source="JjN0nvbfUZPxdywx9kI7-20" target="JjN0nvbfUZPxdywx9kI7-40">
          <mxGeometry width="160" relative="1" as="geometry">
            <mxPoint x="420" y="270" as="sourcePoint" />
            <mxPoint x="580" y="270" as="targetPoint" />
          </mxGeometry>
        </mxCell>
        <mxCell id="JjN0nvbfUZPxdywx9kI7-44" value="Manage residents" style="ellipse;whiteSpace=wrap;html=1;fontSize=12;" vertex="1" parent="1">
          <mxGeometry x="530" y="150" width="60" height="40" as="geometry" />
        </mxCell>
        <mxCell id="JjN0nvbfUZPxdywx9kI7-46" value="manage routes" style="ellipse;whiteSpace=wrap;html=1;fontSize=12;" vertex="1" parent="1">
          <mxGeometry x="530" y="250" width="60" height="40" as="geometry" />
        </mxCell>
        <mxCell id="JjN0nvbfUZPxdywx9kI7-47" value="" style="endArrow=classic;html=1;rounded=0;fontSize=12;" edge="1" parent="1" source="JjN0nvbfUZPxdywx9kI7-3" target="JjN0nvbfUZPxdywx9kI7-45">
          <mxGeometry width="50" height="50" relative="1" as="geometry">
            <mxPoint x="710" y="212" as="sourcePoint" />
            <mxPoint x="310" y="257" as="targetPoint" />
          </mxGeometry>
        </mxCell>
        <mxCell id="JjN0nvbfUZPxdywx9kI7-45" value="Manage bins" style="ellipse;whiteSpace=wrap;html=1;fontSize=12;" vertex="1" parent="1">
          <mxGeometry x="530" y="200" width="60" height="40" as="geometry" />
        </mxCell>
        <mxCell id="JjN0nvbfUZPxdywx9kI7-48" value="" style="endArrow=classic;html=1;rounded=0;fontSize=12;exitX=0.5;exitY=0.5;exitDx=0;exitDy=0;exitPerimeter=0;" edge="1" parent="1" source="JjN0nvbfUZPxdywx9kI7-3">
          <mxGeometry width="50" height="50" relative="1" as="geometry">
            <mxPoint x="710" y="210" as="sourcePoint" />
            <mxPoint x="580" y="170" as="targetPoint" />
          </mxGeometry>
        </mxCell>
        <mxCell id="JjN0nvbfUZPxdywx9kI7-49" value="" style="endArrow=classic;html=1;rounded=0;fontSize=12;entryX=1;entryY=0.5;entryDx=0;entryDy=0;" edge="1" parent="1" source="JjN0nvbfUZPxdywx9kI7-3" target="JjN0nvbfUZPxdywx9kI7-46">
          <mxGeometry width="50" height="50" relative="1" as="geometry">
            <mxPoint x="735" y="220" as="sourcePoint" />
            <mxPoint x="590" y="180" as="targetPoint" />
          </mxGeometry>
        </mxCell>
        <mxCell id="JjN0nvbfUZPxdywx9kI7-50" value="validate values" style="ellipse;whiteSpace=wrap;html=1;fontSize=12;" vertex="1" parent="1">
          <mxGeometry x="388" y="70" width="75" height="50" as="geometry" />
        </mxCell>
        <mxCell id="JjN0nvbfUZPxdywx9kI7-52" value="&amp;lt;&amp;lt;include&amp;gt;&amp;gt;" style="html=1;verticalAlign=bottom;labelBackgroundColor=none;endArrow=open;endFill=0;dashed=1;rounded=0;" edge="1" parent="1" source="JjN0nvbfUZPxdywx9kI7-9" target="JjN0nvbfUZPxdywx9kI7-50">
          <mxGeometry width="160" relative="1" as="geometry">
            <mxPoint x="260" y="70" as="sourcePoint" />
            <mxPoint x="420" y="70" as="targetPoint" />
          </mxGeometry>
        </mxCell>
      </root>
    </mxGraphModel>
  </diagram>
</mxfile>
